<?xml version="1.0" standalone="no"?>
<!DOCTYPE svg PUBLIC "-//W3C//DTD SVG 20010904//EN"
 "http://www.w3.org/TR/2001/REC-SVG-20010904/DTD/svg10.dtd">
<svg version="1.0" xmlns="http://www.w3.org/2000/svg"
 width="102.000000pt" height="102.000000pt" viewBox="0 0 102.000000 102.000000"
 preserveAspectRatio="xMidYMid meet">

<g transform="translate(0.000000,102.000000) scale(0.100000,-0.100000)"
fill="#000000" stroke="none">
<path d="M770 870 c0 -9 -8 -32 -18 -52 -14 -26 -15 -35 -5 -31 20 8 15 -14
-9 -37 -20 -18 -20 -20 -3 -20 17 0 16 -3 -6 -26 l-24 -27 23 12 c38 20 36 6
-5 -40 -32 -35 -34 -40 -13 -30 21 11 19 7 -10 -22 -44 -43 -100 -55 -119 -25
-11 17 -10 18 8 9 34 -18 37 -12 8 14 -33 31 -33 35 -4 28 l22 -5 -22 16 c-27
20 -31 38 -6 29 12 -5 10 2 -8 26 -14 19 -20 35 -14 39 7 4 5 18 -5 37 l-15
30 -16 -32 c-9 -18 -13 -33 -8 -33 15 0 10 -27 -6 -40 -12 -10 -13 -15 -4 -20
8 -5 5 -14 -11 -30 -22 -22 -22 -22 -1 -15 24 7 28 -7 6 -25 -19 -16 -44 -6
-44 17 1 10 -3 29 -7 42 -6 19 -4 22 7 16 12 -7 12 -6 1 7 -7 9 -17 29 -22 45
-6 21 -8 23 -9 8 -1 -11 -8 -30 -16 -42 -11 -16 -12 -22 -3 -25 9 -3 8 -12 -5
-31 -16 -25 -16 -26 0 -20 12 4 8 -5 -12 -27 -26 -29 -27 -31 -7 -20 34 17 36
7 4 -22 -43 -41 -80 -43 -122 -8 -19 16 -30 30 -23 30 6 0 15 -4 18 -10 3 -5
13 -10 22 -10 10 0 2 12 -23 34 -21 19 -36 38 -31 42 4 4 13 2 19 -4 24 -24
31 -11 8 13 -22 23 -22 25 -5 25 18 0 17 1 -3 16 -27 18 -30 46 -5 37 17 -6
17 -5 0 14 -10 12 -22 34 -26 49 l-8 29 -12 -37 c-7 -21 -17 -38 -22 -38 -5 0
-9 -5 -9 -11 0 -6 7 -9 15 -5 21 8 19 -8 -5 -29 -16 -14 -18 -20 -8 -27 10 -6
9 -11 -4 -22 -24 -18 -23 -29 2 -16 33 18 25 -11 -12 -43 -31 -26 -31 -28 -8
-22 l25 7 -28 -27 c-30 -29 -30 -47 0 -25 10 8 3 0 -14 -18 -18 -17 -33 -35
-33 -39 0 -12 71 -4 87 9 9 7 13 6 13 -3 0 -21 -11 -32 -54 -54 -22 -11 -42
-26 -44 -34 -3 -8 8 -4 26 9 36 27 116 37 163 21 17 -6 74 -18 126 -26 96 -16
133 -28 133 -45 0 -17 -46 -40 -121 -61 -78 -22 -99 -33 -99 -55 0 -11 21 -14
94 -14 84 0 94 2 99 19 3 12 34 34 83 58 108 53 110 78 9 114 -35 12 -103 24
-166 29 -108 8 -149 20 -149 45 0 27 43 37 178 45 74 4 139 13 145 19 15 15
104 14 113 -1 5 -7 3 -8 -6 -3 -8 5 -11 4 -7 -2 4 -6 23 -9 44 -7 35 4 37 3
19 -11 -19 -14 -18 -15 15 -15 19 -1 58 -9 88 -19 l54 -19 -26 22 c-13 11 -27
31 -30 44 -6 26 -4 27 28 6 18 -11 25 -13 25 -4 0 7 7 10 16 6 15 -6 15 -4 0
19 -9 14 -13 25 -9 25 4 0 -8 16 -27 35 -35 36 -34 43 3 24 16 -8 12 -1 -12
25 -36 37 -35 44 2 25 18 -9 16 -5 -8 21 -20 22 -24 31 -12 27 21 -8 22 0 2
19 -18 18 -20 44 -3 44 6 0 4 7 -5 18 -10 10 -17 27 -18 38 0 13 -5 10 -15
-13 -25 -58 -45 -55 -69 13 -8 22 -14 32 -15 24z m80 -90 c0 -3 -7 -15 -15
-26 -15 -19 -15 -19 -30 0 -21 28 -19 33 15 33 17 0 30 -3 30 -7z m-21 -66
c-9 -11 -15 -11 -25 -3 -21 18 -17 27 11 21 20 -3 23 -7 14 -18z m1 -44 c-6
-11 -16 -17 -22 -14 -7 5 -5 12 7 21 25 18 28 17 15 -7z m105 -98 c-3 -3 -11
0 -18 7 -9 10 -8 11 6 5 10 -3 15 -9 12 -12z m-437 -10 c-8 -9 -14 -9 -24 -1
-18 15 -18 14 10 14 18 0 22 -3 14 -13z m217 8 c-3 -5 -12 -10 -18 -10 -7 0
-6 4 3 10 19 12 23 12 15 0z m116 -63 c-16 -16 -26 0 -10 19 9 11 15 12 17 4
2 -6 -1 -17 -7 -23z m-546 -5 c-3 -3 -11 0 -18 7 -9 10 -8 11 6 5 10 -3 15 -9
12 -12z m-35 -52 c9 -16 8 -20 -5 -20 -8 0 -15 9 -15 20 0 11 2 20 5 20 2 0 9
-9 15 -20z"/>
<path d="M320 470 c0 -5 5 -10 10 -10 6 0 10 5 10 10 0 6 -4 10 -10 10 -5 0
-10 -4 -10 -10z"/>
<path d="M691 383 c7 -12 15 -20 18 -17 3 2 -3 12 -13 22 -17 16 -18 16 -5 -5z"/>
<path d="M490 325 c0 -8 5 -15 10 -15 6 0 10 7 10 15 0 8 -4 15 -10 15 -5 0
-10 -7 -10 -15z"/>
</g>
</svg>
